HIERARCHY
ROOT hip
{
	OFFSET 0.000000 0.000000 0.000000 
	CHANNELS 6 Xposition Yposition Zposition Xrotation Zrotation Yrotation
	JOINT abdomen
	{
		OFFSET 0.000000 3.402643 0.000000 
		CHANNELS 3 Xrotation Zrotation Yrotation
		JOINT chest
		{
			OFFSET 0.000000 8.438565 -0.680529 
			CHANNELS 3 Xrotation Zrotation Yrotation
			JOINT neck
			{
				OFFSET 0.000000 10.207942 -0.272212 
				CHANNELS 3 Xrotation Zrotation Yrotation
				JOINT head
				{
					OFFSET 0.000000 3.130431 0.000000 
					CHANNELS 3 Xrotation Zrotation Yrotation
					End Site
					{
						OFFSET 0.000000 3.130435 0.000000 
					}
				}
			}
			JOINT lCollar
			{
				OFFSET 3.470700 6.669187 -0.816635 
				CHANNELS 3 Yrotation Zrotation Xrotation
				JOINT lShldr
				{
					OFFSET 3.198488 0.000000 0.000000 
					CHANNELS 3 Zrotation Yrotation Xrotation
					JOINT lForeArm
					{
						OFFSET 10.139888 0.000000 0.000000 
						CHANNELS 3 Yrotation Zrotation Xrotation
						JOINT lHand
						{
							OFFSET 8.370511 0.000000 0.000000 
							CHANNELS 3 Zrotation Yrotation Xrotation
							End Site
							{
								OFFSET 4.083176 0.000000 0.000000 
							}
						}
					}
				}
			}
			JOINT rCollar
			{
				OFFSET -3.470700 6.669187 -0.816635 
				CHANNELS 3 Yrotation Zrotation Xrotation
				JOINT rShldr
				{
					OFFSET -3.198488 0.000000 0.000000 
					CHANNELS 3 Zrotation Yrotation Xrotation
					JOINT rForeArm
					{
						OFFSET -10.139888 0.000000 0.000000 
						CHANNELS 3 Yrotation Zrotation Xrotation
						JOINT rHand
						{
							OFFSET -8.370511 0.000000 0.000000 
							CHANNELS 3 Zrotation Yrotation Xrotation
							End Site
							{
								OFFSET -4.083176 0.000000 0.000000 
							}
						}
					}
				}
			}
		}
	}
	JOINT lThigh
	{
		OFFSET 5.308129 -1.633274 1.361059 
		CHANNELS 3 Xrotation Zrotation Yrotation
		JOINT lShin
		{
			OFFSET -2.041588 -20.007561 0.000000 
			CHANNELS 3 Xrotation Zrotation Yrotation
			JOINT lFoot
			{
				OFFSET 0.000000 -19.190928 -1.224953 
				CHANNELS 3 Xrotation Yrotation Zrotation
				End Site
				{
					OFFSET 0.000000 -2.449906 4.627600 
				}
			}
		}
	}
	JOINT rThigh
	{
		OFFSET -5.308129 -1.633274 1.361059 
		CHANNELS 3 Xrotation Zrotation Yrotation
		JOINT rShin
		{
			OFFSET 2.041588 -20.007561 0.000000 
			CHANNELS 3 Xrotation Zrotation Yrotation
			JOINT rFoot
			{
				OFFSET 0.000000 -19.190928 -1.224953 
				CHANNELS 3 Xrotation Yrotation Zrotation
				End Site
				{
					OFFSET 0.000000 -2.449906 4.627600 
				}
			}
		}
	}
}
MOTION
Frames: 8
Frame Time: 0.033333
-6.415902 31.641834 -17.339523 -42.120930 54.962646 -55.694763 0.000000 0.000000 0.000000 17.311405 -4.038061 4.884989 48.650291 -16.517811 -1.538683 -21.331455 -2.761453 2.297431 -38.324169 29.997259 24.989590 -63.464760 15.123160 -21.674541 -16.520767 63.302311 -53.007515 -25.574612 -9.525015 -44.475918 19.642435 -29.045107 25.000000 42.537868 14.895908 64.617279 -8.444705 -18.774023 -6.787220 -9.468236 -40.033680 -68.635345 -43.153320 45.060669 30.655285 35.238667 5.319324 -0.249636 19.824415 -22.535620 -5.857512 -83.314171 -29.469732 -4.022538 116.619835 20.732435 13.494520 39.043262 6.475833 10.177753 
-7.723793 27.411886 -18.840183 -59.759621 54.660854 -62.469532 0.000000 0.000000 0.000000 21.989174 -7.912689 3.775825 49.734623 -9.725019 -1.030722 -22.744556 -4.930482 -1.244877 -45.000000 29.998758 24.977314 -68.512711 2.100460 -17.602667 45.242085 75.886215 -121.455078 -22.790726 -10.203609 -45.809566 9.059309 -27.018663 24.997374 52.918682 7.232609 70.614159 -27.619928 -44.682709 -9.888522 -7.930287 -45.505295 -64.936119 -42.770565 39.248989 27.148697 28.990469 8.835814 0.930857 16.655041 -20.498924 -6.756511 -86.274628 -34.567596 -5.857424 128.567520 8.827525 10.701173 33.338459 8.654475 14.020938 
-9.124519 22.597082 -20.605284 -72.175964 47.892509 -70.720459 0.000000 0.000000 0.000000 28.812141 -9.479916 2.939559 51.507046 -6.923098 -0.836974 -24.749516 -7.849682 -1.262293 -45.000000 29.998758 24.977314 -71.451424 -8.794583 -15.487862 -87.854828 114.388901 15.746305 -18.953796 -10.561314 -47.761585 5.541442 -25.047695 24.999666 60.454258 4.871059 74.461708 -83.437401 -60.596066 -55.126236 3.068279 -30.645355 -75.252632 -40.185204 40.505730 28.650677 28.049437 11.914984 1.680885 14.757344 -20.180037 -1.059029 -72.973259 -30.495316 -5.091759 129.155060 2.158374 9.159680 31.919947 7.662529 13.135618 
-10.194914 17.579128 -23.580393 -76.800842 41.302525 -77.227676 0.000000 0.000000 0.000000 34.772381 -6.738768 3.018569 51.474968 -13.326694 -1.316873 -25.319656 -2.262212 3.146704 -44.995472 30.000000 24.979374 -62.982590 -19.919827 -18.005270 -46.017548 105.360374 -23.338772 -15.170040 -4.527799 -51.407921 8.987357 -30.000000 24.997082 78.272438 20.650072 78.067764 55.751583 -129.909836 82.186707 13.168885 -12.550869 -78.104156 -40.224743 46.131393 32.367172 30.295889 11.636503 1.504073 14.959069 -26.230431 -6.825080 -58.683743 -11.981533 0.332729 119.893822 6.522010 10.006235 31.552055 4.517354 11.700753 
-11.373518 13.474910 -26.360674 -88.913475 38.180820 -77.001305 0.000000 0.000000 0.000000 38.026051 -5.959074 2.925846 51.364410 -9.920209 -1.061263 -23.115143 -0.917916 -0.615468 -40.175499 29.993980 24.983288 -62.066761 -49.015484 -19.181183 46.743111 114.227051 -108.415520 -16.394566 -3.661444 -51.145393 0.763621 -30.000000 24.259581 119.234695 31.797153 89.032539 47.332092 -133.073746 79.867912 9.189222 3.181176 -77.817093 -45.915604 37.319107 25.153126 36.842373 11.257028 1.016520 10.876974 -27.822218 -16.256100 -51.164200 -10.438491 0.330687 112.102074 11.933028 10.968163 27.152224 9.539419 14.228551 
-11.915266 13.059711 -28.521227 -108.981812 38.374279 -76.322479 0.000000 0.000000 0.000000 36.769421 -6.114689 3.004551 49.496864 1.357412 -0.214783 -17.764458 -7.264932 -10.308355 18.452690 29.999641 4.087010 -155.283249 -66.128181 28.963547 -110.763237 0.887060 72.807510 -15.205944 -15.299634 -46.475887 -16.496532 -30.000000 12.604642 136.255280 32.872425 92.378250 -114.520859 -51.576221 -68.792786 6.081160 13.889844 -77.849258 -53.790184 15.287743 14.194342 54.089268 10.913471 0.111737 8.332252 -7.480252 -27.425077 -50.101112 -25.797106 -4.864978 108.469368 3.945552 8.984073 24.357634 9.643807 25.524794 
-12.494790 14.013151 -30.424572 -105.676231 32.186985 -83.919594 0.000000 0.000000 0.000000 39.050037 2.569388 4.721675 30.767124 -12.693086 -1.092080 -8.154655 -15.632664 -4.736215 44.996254 29.990746 -25.000000 -145.235123 -45.921406 16.279388 -115.058212 -23.283405 60.652348 -24.188734 -24.601778 -38.473156 1.341462 -30.000000 23.988922 -23.155771 141.910828 -85.750763 -102.963570 -62.075722 -63.767513 12.999611 13.224865 -75.942429 -57.446892 27.203117 17.342970 68.176422 12.151241 -0.158723 13.471894 -23.251253 -13.751554 -48.074841 -16.435226 -1.746029 103.038239 7.148342 9.442093 28.623329 2.548282 21.171257 
-12.653466 14.994321 -32.645832 -109.204399 30.172478 -88.132919 0.000000 0.000000 0.000000 42.398838 5.292147 5.031591 10.591318 -20.403004 -1.585286 -7.144598 -26.863716 -0.659500 44.996254 29.990746 -25.000000 -127.593193 -47.279934 9.475296 -118.892143 -9.043343 45.581768 -22.605410 -30.954124 -37.621017 12.209283 -30.000000 24.997108 -15.450033 138.590958 -85.451744 -96.065376 -67.141724 -72.416382 13.598504 18.446323 -74.820320 -59.869987 28.590811 17.173548 67.743042 10.433349 -0.500609 12.234671 -27.375164 -13.137992 -50.836269 -20.125416 -2.812819 106.633102 13.857187 11.248367 29.659346 4.273345 16.241325 
